<svg width="current" height="current" viewBox="0 0 22 24" fill="none" xmlns="http://www.w3.org/2000/svg">
<path d="M11 0C6.02946 0 2.00002 4.02944 2.00002 9V13.8028L0.0714007 18.629C-0.0516993 18.937 -0.0140195 19.286 0.172021 19.5608C0.358081 19.8354 0.668241 20 1 20H7C7 22.2168 8.78328 24 11 24C13.2167 24 15 22.2168 15 20H21C21.3318 20 21.642 19.8354 21.828 19.5608C22.014 19.286 22.0518 18.937 21.9286 18.629L20 13.8028V9C20 4.02944 15.9706 0 11 0ZM13 20C13 21.1122 12.1121 22 11 22C9.88786 22 9 21.1122 9 20H13ZM4.00002 9C4.00002 5.134 7.13402 2 11 2C14.866 2 18 5.134 18 9V13.9952C18 14.1223 18.0242 14.2483 18.0714 14.3663L19.5234 18H2.47652L3.92862 14.3663C3.97578 14.2483 4.00002 14.1223 4.00002 13.9952V9Z" fill="#212121"/>
</svg>
