<svg width="current" height="current" viewBox="0 0 24 24" fill="none" xmlns="http://www.w3.org/2000/svg">
<path d="M22.6666 10.3146V20.6666C22.6666 22.5076 21.1743 24 19.3333 24H15.3333C14.9651 24 14.6667 23.7015 14.6667 23.3333V15.3333C14.6667 14.9651 14.3682 14.6666 14 14.6666H10C9.63181 14.6666 9.33334 14.9651 9.33334 15.3333V23.3333C9.33334 23.7015 9.03486 24 8.66667 24H4.66668C2.82573 24 1.33335 22.5076 1.33335 20.6666V10.3146L1.09049 10.5146C0.806272 10.7487 0.386126 10.708 0.152065 10.4238C-0.0819954 10.1396 -0.0413362 9.71943 0.24288 9.48536L11.5762 0.152046C11.8224 -0.0506821 12.1776 -0.0506821 12.4238 0.152046L23.7571 9.48536C24.0413 9.71943 24.082 10.1396 23.8479 10.4238C23.6139 10.708 23.1937 10.7487 22.9095 10.5146L22.6666 10.3146ZM21.3423 9.22392L12 1.5303L2.65775 9.22392C2.66362 9.25951 2.66668 9.29606 2.66668 9.33332V20.6666C2.66668 21.7712 3.56211 22.6666 4.66668 22.6666H8.00001V15.3333C8.00001 14.2287 8.89544 13.3333 10 13.3333H14C15.1046 13.3333 16 14.2287 16 15.3333V22.6666H19.3333C20.4379 22.6666 21.3333 21.7712 21.3333 20.6666V9.33332C21.3333 9.29606 21.3364 9.25951 21.3423 9.22392Z" fill="black"/>
</svg>
