<svg width="current" height="current" viewBox="0 0 24 25" fill="none" xmlns="http://www.w3.org/2000/svg">
<path d="M18 0C14.6992 0 12 2.69922 12 6C12 6.99219 12.3828 8.00391 12.875 9.125C13.3672 10.2461 13.9883 11.4336 14.625 12.5312C15.8984 14.7266 17.1875 16.5625 17.1875 16.5625L18 17.75L18.8125 16.5625C18.8125 16.5625 20.1016 14.7266 21.375 12.5312C22.0117 11.4336 22.6328 10.2461 23.125 9.125C23.6172 8.00391 24 6.99219 24 6C24 2.69922 21.3008 0 18 0ZM7.96875 1.9375L0 5.34375V24.5312L8.03125 21.0625L16.0312 24.0625L24 20.6562V11.9375C23.3633 13.1602 22.6562 14.332 22 15.375V19.3438L17 21.4688V19.8438L15.5312 17.7188C15.375 17.4922 15.1914 17.2227 15 16.9375V21.5625L9 19.3125V4.4375L10.0938 4.84375C10.1914 4.16797 10.3672 3.51562 10.625 2.90625L7.96875 1.9375ZM18 2C20.2188 2 22 3.78125 22 6C22 6.38672 21.7578 7.30078 21.3125 8.3125C20.8672 9.32422 20.2383 10.4727 19.625 11.5312C18.8086 12.9375 18.457 13.4375 18 14.125C17.543 13.4375 17.1914 12.9375 16.375 11.5312C15.7617 10.4727 15.1328 9.32422 14.6875 8.3125C14.2422 7.30078 14 6.38672 14 6C14 3.78125 15.7812 2 18 2ZM7 4.5V19.3438L2 21.4688V6.65625L7 4.5ZM18 4.5C17.1719 4.5 16.5 5.17188 16.5 6C16.5 6.82812 17.1719 7.5 18 7.5C18.8281 7.5 19.5 6.82812 19.5 6C19.5 5.17188 18.8281 4.5 18 4.5Z" fill="black"/>
</svg>
