<svg width="34" height="37" viewBox="0 0 34 37" fill="none" xmlns="http://www.w3.org/2000/svg">
<path d="M8.25294 20.3922C9.39216 20.3922 10.3157 19.3778 10.3157 18.1264C10.3157 16.875 9.39216 15.8606 8.25294 15.8606C7.11371 15.8606 6.19019 16.875 6.19019 18.1264C6.19019 19.3778 7.11371 20.3922 8.25294 20.3922Z" fill="black"/>
<path d="M16.504 20.3922C17.6433 20.3922 18.5668 19.3778 18.5668 18.1264C18.5668 16.875 17.6433 15.8606 16.504 15.8606C15.3648 15.8606 14.4413 16.875 14.4413 18.1264C14.4413 19.3778 15.3648 20.3922 16.504 20.3922Z" fill="black"/>
<path d="M24.755 20.3922C25.8942 20.3922 26.8178 19.3778 26.8178 18.1264C26.8178 16.875 25.8942 15.8606 24.755 15.8606C23.6158 15.8606 22.6923 16.875 22.6923 18.1264C22.6923 19.3778 23.6158 20.3922 24.755 20.3922Z" fill="black"/>
</svg>
