<svg width="current" height="current" viewBox="0 0 31 26" fill="current" xmlns="http://www.w3.org/2000/svg">
<path d="M28 4H23.1429L21.9857 0.757143C21.9058 0.535243 21.7593 0.343435 21.5662 0.20792C21.3732 0.072405 21.143 -0.000208078 20.9071 4.47867e-07H9.95C9.46786 4.47867e-07 9.03572 0.303572 8.875 0.757143L7.71429 4H2.85714C1.27857 4 0 5.27857 0 6.85714V23.1429C0 24.7214 1.27857 26 2.85714 26H28C29.5786 26 30.8571 24.7214 30.8571 23.1429V6.85714C30.8571 5.27857 29.5786 4 28 4ZM28.2857 23.1429C28.2857 23.3 28.1571 23.4286 28 23.4286H2.85714C2.7 23.4286 2.57143 23.3 2.57143 23.1429V6.85714C2.57143 6.7 2.7 6.57143 2.85714 6.57143H9.525L10.1357 4.86429L10.9536 2.57143H19.9L20.7179 4.86429L21.3286 6.57143H28C28.1571 6.57143 28.2857 6.7 28.2857 6.85714V23.1429ZM15.4286 8.85714C12.2714 8.85714 9.71429 11.4143 9.71429 14.5714C9.71429 17.7286 12.2714 20.2857 15.4286 20.2857C18.5857 20.2857 21.1429 17.7286 21.1429 14.5714C21.1429 11.4143 18.5857 8.85714 15.4286 8.85714ZM15.4286 18C13.5357 18 12 16.4643 12 14.5714C12 12.6786 13.5357 11.1429 15.4286 11.1429C17.3214 11.1429 18.8571 12.6786 18.8571 14.5714C18.8571 16.4643 17.3214 18 15.4286 18Z" fill="current"/>
</svg>
