<svg width="current" height="current" viewBox="0 0 24 24" fill="none" xmlns="http://www.w3.org/2000/svg">
<path d="M12 5.33334C12.5523 5.33334 13 5.78106 13 6.33334V11H17.6667C18.219 11 18.6667 11.4477 18.6667 12C18.6667 12.5523 18.219 13 17.6667 13H13V17.6667C13 18.2189 12.5523 18.6667 12 18.6667C11.4478 18.6667 11 18.2189 11 17.6667V13H6.33337C5.78109 13 5.33337 12.5523 5.33337 12C5.33337 11.4477 5.78109 11 6.33337 11H11V6.33334C11 5.78106 11.4478 5.33334 12 5.33334Z" fill="#212121"/>
<path d="M0 4.33333C0 1.94009 1.94009 0 4.33333 0H19.6667C22.0599 0 24 1.94009 24 4.33333V19.6667C24 22.0599 22.0599 24 19.6667 24H4.33333C1.94009 24 0 22.0599 0 19.6667V4.33333ZM4.33333 2C3.04467 2 2 3.04467 2 4.33333V19.6667C2 20.9553 3.04467 22 4.33333 22H19.6667C20.9553 22 22 20.9553 22 19.6667V4.33333C22 3.04467 20.9553 2 19.6667 2H4.33333Z" fill="#212121"/>
</svg>
