<svg width="18" height="14" viewBox="0 0 18 14" fill="none" xmlns="http://www.w3.org/2000/svg">
<path d="M8.16666 3.875V1.33333C8.16666 1.11232 8.07887 0.900358 7.92259 0.744078C7.76631 0.587797 7.55434 0.5 7.33333 0.5C7.11471 0.500921 6.90521 0.587713 6.75 0.741667L0.916665 6.575C0.838558 6.65247 0.776562 6.74464 0.734255 6.84619C0.691948 6.94774 0.670166 7.05666 0.670166 7.16667C0.670166 7.27668 0.691948 7.3856 0.734255 7.48715C0.776562 7.5887 0.838558 7.68086 0.916665 7.75833L6.75 13.5917C6.86698 13.7063 7.01517 13.784 7.17604 13.8149C7.33692 13.8458 7.50333 13.8286 7.65449 13.7655C7.80566 13.7024 7.93486 13.5961 8.02595 13.4599C8.11704 13.3238 8.16599 13.1638 8.16666 13V10.4167H8.875C10.1916 10.397 11.4967 10.6641 12.6997 11.1995C13.9027 11.7348 14.9749 12.5255 15.8417 13.5167C15.9461 13.6557 16.0915 13.7586 16.2574 13.8109C16.4232 13.8632 16.6013 13.8623 16.7667 13.8083C16.9349 13.7516 17.0806 13.6425 17.1826 13.4971C17.2845 13.3517 17.3373 13.1775 17.3333 13C17.3333 5.4 10.6 4.1 8.16666 3.875ZM8.875 8.73333C8.31763 8.73159 7.76079 8.76778 7.20833 8.84167C7.01105 8.8716 6.83105 8.97132 6.70107 9.12272C6.57108 9.27411 6.49974 9.46713 6.5 9.66667V10.9917L2.68333 7.16667L6.5 3.34167V4.66667C6.5 4.88768 6.5878 5.09964 6.74408 5.25592C6.90036 5.4122 7.11232 5.5 7.33333 5.5C8.09166 5.5 14.0917 5.66667 15.3917 10.8583C13.5047 9.46713 11.2193 8.72188 8.875 8.73333Z" fill="black"/>
</svg>
