<svg width="20" height="18" viewBox="0 0 20 18" fill="none" xmlns="http://www.w3.org/2000/svg">
<path d="M10 0.25C4.47659 0.25 2.90312e-05 3.88672 2.90312e-05 8.375C2.90312e-05 10.2344 0.777373 11.9375 2.06644 13.3086C1.4844 14.8477 0.273467 16.1523 0.253935 16.168C-0.00387722 16.4414 -0.0741897 16.8398 0.0742478 17.1836C0.222685 17.5273 0.562529 17.75 0.937529 17.75C3.33987 17.75 5.2344 16.7461 6.37112 15.9414C7.50003 16.2969 8.71878 16.5 10 16.5C15.5235 16.5 20 12.8633 20 8.375C20 3.88672 15.5235 0.25 10 0.25ZM10 14.625C8.95706 14.625 7.92581 14.4648 6.93753 14.1523L6.05081 13.8711L5.28909 14.4102C4.7305 14.8047 3.96487 15.2461 3.043 15.543C3.32815 15.0703 3.6055 14.5391 3.82034 13.9727L4.2344 12.875L3.42972 12.0234C2.72269 11.2695 1.87503 10.0234 1.87503 8.375C1.87503 4.92969 5.51956 2.125 10 2.125C14.4805 2.125 18.125 4.92969 18.125 8.375C18.125 11.8203 14.4805 14.625 10 14.625Z" fill="black"/>
</svg>
